<?xml version="1.0" encoding="utf-8"?>
<!-- Generator: Adobe Illustrator 27.1.1, SVG Export Plug-In . SVG Version: 6.00 Build 0)  -->
<svg version="1.1" id="Capa_1" xmlns:v="https://vecta.io/nano"
	 xmlns="http://www.w3.org/2000/svg" xmlns:xlink="http://www.w3.org/1999/xlink" x="0px" y="0px" viewBox="0 0 261.8 226.7"
	 style="enable-background:new 0 0 261.8 226.7;" xml:space="preserve">
<path d="M82.6,184.6c0-23,0-45.9,0-68.9c22.9,0,45.7,0,68.6,0c0,22.9,0,45.9,0,68.9c-0.3,0-0.7,0-1,0c-3.8,0-7.6,0-11.4,0
	c-1.3,0-1.3,0-1.3-1.2c0-17.5,0-35.1,0-52.6c0-0.4,0-0.8,0-1.2c-13.7,0-27.4,0-41.1,0c0,0.4,0,0.8,0,1.2c0,17.5,0,35.1,0,52.6
	c0,1.3,0,1.3-1.2,1.3c-3.8,0-7.6,0-11.4,0C83.3,184.6,83,184.6,82.6,184.6z"/>
<g>
	<path d="M179.1,110.7c-23,0-45.9,0-68.9,0c0-22.9,0-45.7,0-68.6c22.9,0,45.9,0,68.9,0c0,0.3,0,0.7,0,1c0,3.8,0,7.6,0,11.4
		c0,1.3,0,1.3-1.2,1.3c-17.5,0-35.1,0-52.6,0c-0.4,0-0.8,0-1.2,0c0,13.7,0,27.4,0,41.1c0.4,0,0.8,0,1.2,0c17.5,0,35.1,0,52.6,0
		c1.3,0,1.3,0,1.3,1.2c0,3.8,0,7.6,0,11.4C179.1,110,179.1,110.3,179.1,110.7z"/>
	<path d="M0,97c18.3,0,36.6,0,54.9,0c0-13.7,0-27.4,0-41.1c-18.3,0-36.6,0-54.9,0c0-4.6,0-9.2,0-13.7c22.9,0,45.8,0,68.8,0
		c0,22.9,0,45.7,0,68.5c-22.9,0-45.8,0-68.8,0C0,106.1,0,101.6,0,97z"/>
	<path d="M192.8,42.1c23,0,45.9,0,68.8,0c0,4.6,0,9.1,0,13.6c-22.9,0-45.9,0-68.8,0C192.8,51.2,192.8,46.7,192.8,42.1z"/>
	<path d="M192.8,97c22.9,0,45.8,0,68.8,0c0,4.5,0,9,0,13.6c-22.9,0-45.8,0-68.8,0C192.8,106.1,192.8,101.6,192.8,97z"/>
	<path d="M96.4,110.7c-4.6,0-9.1,0-13.8,0c0-22.8,0-45.7,0-68.6c4.6,0,9.1,0,13.8,0C96.4,65,96.4,87.8,96.4,110.7z"/>
	<path d="M206.6,184.2c-4.6,0-9.1,0-13.8,0c0-22.8,0-45.7,0-68.6c4.6,0,9.1,0,13.8,0C206.6,138.5,206.6,161.3,206.6,184.2z"/>
	<path d="M192.8,83.2c0-4.6,0-9.1,0-13.7c22.9,0,45.9,0,68.8,0c0,4.5,0,9.1,0,13.7C238.8,83.2,215.8,83.2,192.8,83.2z"/>
</g>
<g>
	<path d="M164.8,184.6c0-23,0-45.9,0-68.9c22.9,0,45.7,0,68.6,0c0,22.9,0,45.9,0,68.9c-0.3,0-0.7,0-1,0c-3.8,0-7.6,0-11.4,0
		c-1.3,0-1.3,0-1.3-1.2c0-17.5,0-35.1,0-52.6c0-0.4,0-0.8,0-1.2c-13.7,0-27.4,0-41.1,0c0,0.4,0,0.8,0,1.2c0,17.5,0,35.1,0,52.6
		c0,1.3,0,1.3-1.2,1.3c-3.8,0-7.6,0-11.4,0C165.6,184.6,165.2,184.6,164.8,184.6z"/>
	<path d="M0,129.5c0-4.5,0-9.1,0-13.7c22.9,0,45.8,0,68.8,0c0,4.5,0,9,0,13.7C50.5,129.5,0,129.5,0,129.5z"/>
	<path d="M68.8,170.6c0,4.6,0,9.2,0,13.7c-22.9,0-45.8,0-68.8,0c0-4.1,0-9.7,0-13.7C0,170.6,50.5,170.6,68.8,170.6z"/>
	<path d="M247.8,115.8c23,0-9.1,0,13.8,0c0,4.6,0,9.1,0,13.6c-22.9,0,9.1,0-13.8,0C247.8,124.9,247.8,120.4,247.8,115.8z"/>
	<path d="M247.8,170.7c22.9,0-9.2,0,13.8,0c0,4.5,0,9,0,13.6c-22.9,0,9.2,0-13.8,0C247.8,179.8,247.8,175.3,247.8,170.7z"/>
	<path d="M68.8,177.4c-4.6,0-9.1,0-13.8,0c0-11.4,0-22.8,0-34.3c4.6,0,9.1,0,13.8,0C68.8,154.5,68.8,165.9,68.8,177.4z"/>
	<path d="M68.7,143.1c0,4.6,0,9.1,0,13.8c-11.4,0-22.8,0-34.3,0c0-4.6,0-9.1,0-13.8C45.8,143.1,57.3,143.1,68.7,143.1z"/>
	<path d="M247.8,156.9c0-4.6,0-9.1,0-13.7c22.9,0-9.1,0,13.8,0c0,4.5,0,9.1,0,13.7C238.8,156.9,270.8,156.9,247.8,156.9z"/>
</g>
</svg>
